<svg width="17" height="18" viewBox="0 0 17 18" fill="none" xmlns="http://www.w3.org/2000/svg">
<path fill-rule="evenodd" clip-rule="evenodd" d="M3.4 8.54955C3.40003 8.60871 3.38904 8.6673 3.36767 8.72196C3.3463 8.77663 3.31497 8.8263 3.27546 8.86813C3.23595 8.90997 3.18904 8.94314 3.13741 8.96577C3.08578 8.9884 3.03045 9.00003 2.97458 9H0.425425C0.36955 9.00003 0.314216 8.9884 0.262589 8.96577C0.210961 8.94314 0.164052 8.90997 0.124542 8.86813C0.0850318 8.8263 0.0536966 8.77663 0.0323269 8.72196C0.0109572 8.6673 -2.78776e-05 8.60871 5.3129e-08 8.54955V5.85045C-2.78776e-05 5.79129 0.0109572 5.7327 0.0323269 5.67804C0.0536966 5.62337 0.0850318 5.5737 0.124542 5.53187C0.164052 5.49003 0.210961 5.45685 0.262589 5.43423C0.314216 5.4116 0.36955 5.39997 0.425425 5.4H2.97458C3.03045 5.39997 3.08578 5.4116 3.13741 5.43423C3.18904 5.45685 3.23595 5.49003 3.27546 5.53187C3.31497 5.5737 3.3463 5.62337 3.36767 5.67804C3.38904 5.7327 3.40003 5.79129 3.4 5.85045V8.54955ZM6.8 17.5495C6.80003 17.6087 6.78904 17.6673 6.76767 17.722C6.7463 17.7766 6.71497 17.8263 6.67546 17.8681C6.63595 17.91 6.58904 17.9431 6.53741 17.9658C6.48578 17.9884 6.43045 18 6.37458 18H3.82542C3.76955 18 3.71422 17.9884 3.66259 17.9658C3.61096 17.9431 3.56405 17.91 3.52454 17.8681C3.48503 17.8263 3.4537 17.7766 3.43233 17.722C3.41096 17.6673 3.39997 17.6087 3.4 17.5495V14.8504C3.39997 14.7913 3.41096 14.7327 3.43233 14.678C3.4537 14.6234 3.48503 14.5737 3.52454 14.5319C3.56405 14.49 3.61096 14.4569 3.66259 14.4342C3.71422 14.4116 3.76955 14.4 3.82542 14.4H6.37458C6.43045 14.4 6.48578 14.4116 6.53741 14.4342C6.58904 14.4569 6.63595 14.49 6.67546 14.5319C6.71497 14.5737 6.7463 14.6234 6.76767 14.678C6.78904 14.7327 6.80003 14.7913 6.8 14.8504V17.5495ZM17 10.3496C17 10.4087 16.989 10.4673 16.9677 10.522C16.9463 10.5766 16.915 10.6263 16.8755 10.6681C16.8359 10.71 16.789 10.7431 16.7374 10.7658C16.6858 10.7884 16.6305 10.8 16.5746 10.8H14.0254C13.9696 10.8 13.9142 10.7884 13.8626 10.7658C13.811 10.7431 13.7641 10.71 13.7245 10.6681C13.685 10.6263 13.6537 10.5766 13.6323 10.522C13.611 10.4673 13.6 10.4087 13.6 10.3496V7.65045C13.6 7.59129 13.611 7.5327 13.6323 7.47804C13.6537 7.42337 13.685 7.3737 13.7245 7.33187C13.7641 7.29003 13.811 7.25686 13.8626 7.23423C13.9142 7.2116 13.9696 7.19997 14.0254 7.2H16.5746C16.6305 7.19997 16.6858 7.2116 16.7374 7.23423C16.789 7.25686 16.8359 7.29003 16.8755 7.33187C16.915 7.3737 16.9463 7.42337 16.9677 7.47804C16.989 7.5327 17 7.59129 17 7.65045V10.3496ZM6.8 12.1495C6.79997 12.2087 6.81096 12.2673 6.83233 12.322C6.8537 12.3766 6.88503 12.4263 6.92454 12.4681C6.96405 12.51 7.01096 12.5431 7.06259 12.5658C7.11422 12.5884 7.16955 12.6 7.22542 12.6H9.77458C9.83045 12.6 9.88578 12.5884 9.93741 12.5658C9.98904 12.5431 10.0359 12.51 10.0755 12.4681C10.115 12.4263 10.1463 12.3766 10.1677 12.322C10.189 12.2673 10.2 12.2087 10.2 12.1495V9.45045C10.2 9.39129 10.189 9.3327 10.1677 9.27803C10.1463 9.22337 10.115 9.1737 10.0755 9.13187C10.0359 9.09003 9.98904 9.05685 9.93741 9.03423C9.88578 9.0116 9.83045 8.99997 9.77458 9H7.22542C7.16955 8.99997 7.11422 9.0116 7.06259 9.03423C7.01096 9.05685 6.96405 9.09003 6.92454 9.13187C6.88503 9.1737 6.8537 9.22337 6.83233 9.27803C6.81096 9.3327 6.79997 9.39129 6.8 9.45045V12.1495ZM10.2 3.14955C10.2 3.20871 10.211 3.2673 10.2323 3.32196C10.2537 3.37663 10.285 3.4263 10.3245 3.46813C10.3641 3.50997 10.411 3.54314 10.4626 3.56577C10.5142 3.5884 10.5695 3.60003 10.6254 3.6H13.1746C13.2305 3.60003 13.2858 3.5884 13.3374 3.56577C13.389 3.54314 13.4359 3.50997 13.4755 3.46813C13.515 3.4263 13.5463 3.37663 13.5677 3.32196C13.589 3.2673 13.6 3.20871 13.6 3.14955V0.45045C13.6 0.391288 13.589 0.3327 13.5677 0.278035C13.5463 0.223371 13.515 0.173702 13.4755 0.131868C13.4359 0.0900337 13.389 0.0568552 13.3374 0.0342285C13.2858 0.0116017 13.2305 -2.95175e-05 13.1746 5.62543e-08H10.6254C10.5695 -2.95175e-05 10.5142 0.0116017 10.4626 0.0342285C10.411 0.0568552 10.3641 0.0900337 10.3245 0.131868C10.285 0.173702 10.2537 0.223371 10.2323 0.278035C10.211 0.3327 10.2 0.391288 10.2 0.45045V3.14955Z" fill="#FDFDFF" fill-opacity="0.6"/>
</svg>
