<svg width="20" height="20" viewBox="0 0 20 20" fill="none" xmlns="http://www.w3.org/2000/svg">
<g filter="url(#filter0_f_525_2670)">
<path fill-rule="evenodd" clip-rule="evenodd" d="M10.1322 7.63806C9.55502 8.00609 8.88452 8.20109 8.2 8.2C8.14361 8.19999 8.08724 8.19868 8.03091 8.19606L8.03957 8.2L6.59912 12.4056C7.56437 13.0513 8.2 14.1515 8.2 15.4C8.2 17.3882 6.58821 19 4.6 19C2.61179 19 1 17.3882 1 15.4C1 13.4118 2.61179 11.8 4.6 11.8C4.69788 11.8 4.79474 11.8039 4.89059 11.8116L6.25634 7.63075C5.26004 6.9904 4.6 5.87238 4.6 4.6C4.6 2.61179 6.21179 1 8.2 1C10.1882 1 11.8 2.61179 11.8 4.6C11.8 5.21988 11.6433 5.8033 11.3673 6.3127L13.5521 8.70985C14.1103 8.37523 14.7492 8.19897 15.4 8.2C17.3882 8.2 19 9.81179 19 11.8C19 13.7882 17.3882 15.4 15.4 15.4C13.4118 15.4 11.8 13.7882 11.8 11.8C11.7991 11.196 11.9507 10.6016 12.241 10.072L10.1322 7.63806ZM4.6 17.2C5.59416 17.2 6.4 16.3942 6.4 15.4C6.4 14.4058 5.59416 13.6 4.6 13.6C3.60584 13.6 2.8 14.4058 2.8 15.4C2.8 16.3942 3.60584 17.2 4.6 17.2ZM8.2 6.4C9.19416 6.4 10 5.59416 10 4.6C10 3.60584 9.19416 2.8 8.2 2.8C7.20584 2.8 6.4 3.60584 6.4 4.6C6.4 5.59416 7.20584 6.4 8.2 6.4ZM15.4 13.6C16.3942 13.6 17.2 12.7942 17.2 11.8C17.2 10.8058 16.3942 10 15.4 10C14.4058 10 13.6 10.8058 13.6 11.8C13.6 12.7942 14.4058 13.6 15.4 13.6Z" fill="#FDFDFF"/>
</g>
<defs>
<filter id="filter0_f_525_2670" x="0" y="0" width="20" height="20" filterUnits="userSpaceOnUse" color-interpolation-filters="sRGB">
<feFlood flood-opacity="0" result="BackgroundImageFix"/>
<feBlend mode="normal" in="SourceGraphic" in2="BackgroundImageFix" result="shape"/>
<feGaussianBlur stdDeviation="0.5" result="effect1_foregroundBlur_525_2670"/>
</filter>
</defs>
</svg>
