<svg width="17" height="18" viewBox="0 0 17 18" fill="none" xmlns="http://www.w3.org/2000/svg">
<path fill-rule="evenodd" clip-rule="evenodd" d="M7.53052 1.22238L7.99247 0.769043H8.87019C8.7778 0.769043 9.28595 1.26772 9.28595 1.26772V8.65719L8.7778 9.0652H7.99247L7.53052 8.65719V1.22238Z" fill="#FDFDFF" fill-opacity="0.6"/>
<path fill-rule="evenodd" clip-rule="evenodd" d="M4.93287 2.85859C4.93287 2.85859 4.88889 3.29307 4.80075 3.42345C2.86302 4.64022 1.71793 6.6391 1.62988 9.15949C1.762 12.8967 4.80075 15.8951 8.54416 15.8951C12.2877 15.8951 15.3264 12.8967 15.2824 9.07263C15.3264 6.72605 14.0493 4.64022 12.2436 3.42345C12.1115 3.16278 12.0234 2.90202 12.0234 2.90202L12.5078 2.16325C12.5078 2.16325 12.684 1.98944 12.9923 2.03287C15.4146 3.59726 17 6.20452 17 9.15949C17 13.7658 13.1685 17.5029 8.50019 17.5029C3.83184 17.5029 -0.0436985 13.7658 0.000372193 9.15959C0.000372193 6.16118 1.62988 3.55383 3.96396 1.94601C4.2282 1.7722 4.49244 2.2502 4.49244 2.2502L4.93287 2.85859V2.85859Z" fill="#FDFDFF" fill-opacity="0.6"/>
</svg>
