<svg width="18" height="18" viewBox="0 0 18 18" fill="none" xmlns="http://www.w3.org/2000/svg">
<path fill-rule="evenodd" clip-rule="evenodd" d="M9.13219 6.63806C8.55502 7.00609 7.88452 7.2011 7.2 7.2C7.14361 7.19999 7.08724 7.19868 7.03091 7.19606L7.03957 7.2L5.59912 11.4056C6.56437 12.0513 7.2 13.1515 7.2 14.4C7.2 16.3882 5.58821 18 3.6 18C1.61179 18 0 16.3882 0 14.4C0 12.4118 1.61179 10.8 3.6 10.8C3.69788 10.8 3.79474 10.8039 3.89059 10.8116L5.25634 6.63075C4.26004 5.9904 3.6 4.87238 3.6 3.6C3.6 1.61179 5.21179 0 7.2 0C9.18821 0 10.8 1.61179 10.8 3.6C10.8 4.21988 10.6433 4.8033 10.3673 5.3127L12.5521 7.70985C13.1103 7.37523 13.7492 7.19897 14.4 7.2C16.3882 7.2 18 8.81179 18 10.8C18 12.7882 16.3882 14.4 14.4 14.4C12.4118 14.4 10.8 12.7882 10.8 10.8C10.7991 10.196 10.9507 9.60164 11.241 9.072L9.13219 6.63806ZM3.6 16.2C4.59416 16.2 5.4 15.3942 5.4 14.4C5.4 13.4058 4.59416 12.6 3.6 12.6C2.60584 12.6 1.8 13.4058 1.8 14.4C1.8 15.3942 2.60584 16.2 3.6 16.2ZM7.2 5.4C8.19416 5.4 9 4.59416 9 3.6C9 2.60584 8.19416 1.8 7.2 1.8C6.20584 1.8 5.4 2.60584 5.4 3.6C5.4 4.59416 6.20584 5.4 7.2 5.4ZM14.4 12.6C15.3942 12.6 16.2 11.7942 16.2 10.8C16.2 9.80584 15.3942 9 14.4 9C13.4058 9 12.6 9.80584 12.6 10.8C12.6 11.7942 13.4058 12.6 14.4 12.6Z" fill="#FDFDFF" fill-opacity="0.25"/>
</svg>
