<svg width="19" height="20" viewBox="0 0 19 20" fill="none" xmlns="http://www.w3.org/2000/svg">
<g filter="url(#filter0_f_525_2673)">
<path fill-rule="evenodd" clip-rule="evenodd" d="M4.4 9.54955C4.40003 9.60871 4.38904 9.6673 4.36767 9.72196C4.3463 9.77663 4.31497 9.8263 4.27546 9.86813C4.23595 9.90997 4.18904 9.94314 4.13741 9.96577C4.08578 9.9884 4.03045 10 3.97458 10H1.42543C1.36955 10 1.31422 9.9884 1.26259 9.96577C1.21096 9.94314 1.16405 9.90997 1.12454 9.86813C1.08503 9.8263 1.0537 9.77663 1.03233 9.72196C1.01096 9.6673 0.999972 9.60871 1 9.54955V6.85045C0.999972 6.79129 1.01096 6.7327 1.03233 6.67804C1.0537 6.62337 1.08503 6.5737 1.12454 6.53187C1.16405 6.49003 1.21096 6.45686 1.26259 6.43423C1.31422 6.4116 1.36955 6.39997 1.42543 6.4H3.97458C4.03045 6.39997 4.08578 6.4116 4.13741 6.43423C4.18904 6.45686 4.23595 6.49003 4.27546 6.53187C4.31497 6.5737 4.3463 6.62337 4.36767 6.67804C4.38904 6.7327 4.40003 6.79129 4.4 6.85045V9.54955ZM7.8 18.5495C7.80003 18.6087 7.78904 18.6673 7.76767 18.722C7.7463 18.7766 7.71497 18.8263 7.67546 18.8681C7.63595 18.91 7.58904 18.9431 7.53741 18.9658C7.48578 18.9884 7.43045 19 7.37458 19H4.82542C4.76955 19 4.71422 18.9884 4.66259 18.9658C4.61096 18.9431 4.56405 18.91 4.52454 18.8681C4.48503 18.8263 4.4537 18.7766 4.43233 18.722C4.41096 18.6673 4.39997 18.6087 4.4 18.5495V15.8504C4.39997 15.7913 4.41096 15.7327 4.43233 15.678C4.4537 15.6234 4.48503 15.5737 4.52454 15.5319C4.56405 15.49 4.61096 15.4569 4.66259 15.4342C4.71422 15.4116 4.76955 15.4 4.82542 15.4H7.37458C7.43045 15.4 7.48578 15.4116 7.53741 15.4342C7.58904 15.4569 7.63595 15.49 7.67546 15.5319C7.71497 15.5737 7.7463 15.6234 7.76767 15.678C7.78904 15.7327 7.80003 15.7913 7.8 15.8504V18.5495ZM18 11.3496C18 11.4087 17.989 11.4673 17.9677 11.522C17.9463 11.5766 17.915 11.6263 17.8755 11.6681C17.8359 11.71 17.789 11.7431 17.7374 11.7658C17.6858 11.7884 17.6305 11.8 17.5746 11.8H15.0254C14.9695 11.8 14.9142 11.7884 14.8626 11.7658C14.811 11.7431 14.7641 11.71 14.7245 11.6681C14.685 11.6263 14.6537 11.5766 14.6323 11.522C14.611 11.4673 14.6 11.4087 14.6 11.3496V8.65045C14.6 8.59129 14.611 8.5327 14.6323 8.47804C14.6537 8.42337 14.685 8.3737 14.7245 8.33187C14.7641 8.29003 14.811 8.25685 14.8626 8.23423C14.9142 8.2116 14.9695 8.19997 15.0254 8.2H17.5746C17.6305 8.19997 17.6858 8.2116 17.7374 8.23423C17.789 8.25685 17.8359 8.29003 17.8755 8.33187C17.915 8.3737 17.9463 8.42337 17.9677 8.47804C17.989 8.5327 18 8.59129 18 8.65045V11.3496ZM7.8 13.1495C7.79997 13.2087 7.81096 13.2673 7.83233 13.322C7.8537 13.3766 7.88503 13.4263 7.92454 13.4681C7.96405 13.51 8.01096 13.5431 8.06259 13.5658C8.11422 13.5884 8.16955 13.6 8.22542 13.6H10.7746C10.8305 13.6 10.8858 13.5884 10.9374 13.5658C10.989 13.5431 11.0359 13.51 11.0755 13.4681C11.115 13.4263 11.1463 13.3766 11.1677 13.322C11.189 13.2673 11.2 13.2087 11.2 13.1495V10.4504C11.2 10.3913 11.189 10.3327 11.1677 10.278C11.1463 10.2234 11.115 10.1737 11.0755 10.1319C11.0359 10.09 10.989 10.0569 10.9374 10.0342C10.8858 10.0116 10.8305 9.99997 10.7746 10H8.22542C8.16955 9.99997 8.11422 10.0116 8.06259 10.0342C8.01096 10.0569 7.96405 10.09 7.92454 10.1319C7.88503 10.1737 7.8537 10.2234 7.83233 10.278C7.81096 10.3327 7.79997 10.3913 7.8 10.4504V13.1495ZM11.2 4.14955C11.2 4.20871 11.211 4.2673 11.2323 4.32196C11.2537 4.37663 11.285 4.4263 11.3245 4.46813C11.3641 4.50997 11.411 4.54314 11.4626 4.56577C11.5142 4.5884 11.5695 4.60003 11.6254 4.6H14.1746C14.2305 4.60003 14.2858 4.5884 14.3374 4.56577C14.389 4.54314 14.4359 4.50997 14.4755 4.46813C14.515 4.4263 14.5463 4.37663 14.5677 4.32196C14.589 4.2673 14.6 4.20871 14.6 4.14955V1.45045C14.6 1.39129 14.589 1.3327 14.5677 1.27804C14.5463 1.22337 14.515 1.1737 14.4755 1.13187C14.4359 1.09003 14.389 1.05686 14.3374 1.03423C14.2858 1.0116 14.2305 0.99997 14.1746 1H11.6254C11.5695 0.99997 11.5142 1.0116 11.4626 1.03423C11.411 1.05686 11.3641 1.09003 11.3245 1.13187C11.285 1.1737 11.2537 1.22337 11.2323 1.27804C11.211 1.3327 11.2 1.39129 11.2 1.45045V4.14955Z" fill="#FDFDFF"/>
</g>
<defs>
<filter id="filter0_f_525_2673" x="0" y="0" width="19" height="20" filterUnits="userSpaceOnUse" color-interpolation-filters="sRGB">
<feFlood flood-opacity="0" result="BackgroundImageFix"/>
<feBlend mode="normal" in="SourceGraphic" in2="BackgroundImageFix" result="shape"/>
<feGaussianBlur stdDeviation="0.5" result="effect1_foregroundBlur_525_2673"/>
</filter>
</defs>
</svg>
