<svg width="291" height="295" viewBox="0 0 291 295" fill="none" xmlns="http://www.w3.org/2000/svg">
<path d="M145.13 79.2997C161.168 79.2997 174.17 66.2981 174.17 50.2597C174.17 34.2214 161.168 21.2197 145.13 21.2197C129.091 21.2197 116.09 34.2214 116.09 50.2597C116.09 66.2981 129.091 79.2997 145.13 79.2997Z" fill="#0000FF"/>
<path d="M47.4902 79.2997C63.5285 79.2997 76.5302 66.2981 76.5302 50.2597C76.5302 34.2214 63.5285 21.2197 47.4902 21.2197C31.4518 21.2197 18.4502 34.2214 18.4502 50.2597C18.4502 66.2981 31.4518 79.2997 47.4902 79.2997Z" fill="#0000FF"/>
<path d="M242.77 79.2997C258.809 79.2997 271.81 66.2981 271.81 50.2597C271.81 34.2214 258.809 21.2197 242.77 21.2197C226.732 21.2197 213.73 34.2214 213.73 50.2597C213.73 66.2981 226.732 79.2997 242.77 79.2997Z" fill="#0000FF"/>
<path d="M145.13 272.95C161.168 272.95 174.17 259.948 174.17 243.91C174.17 227.872 161.168 214.87 145.13 214.87C129.091 214.87 116.09 227.872 116.09 243.91C116.09 259.948 129.091 272.95 145.13 272.95Z" fill="#0000FF"/>
<path d="M47.4902 272.95C63.5285 272.95 76.5302 259.948 76.5302 243.91C76.5302 227.872 63.5285 214.87 47.4902 214.87C31.4518 214.87 18.4502 227.872 18.4502 243.91C18.4502 259.948 31.4518 272.95 47.4902 272.95Z" fill="#0000FF"/>
<path d="M242.77 272.95C258.809 272.95 271.81 259.948 271.81 243.91C271.81 227.872 258.809 214.87 242.77 214.87C226.732 214.87 213.73 227.872 213.73 243.91C213.73 259.948 226.732 272.95 242.77 272.95Z" fill="#0000FF"/>
<path d="M47.4902 176.12C63.5285 176.12 76.5302 163.118 76.5302 147.08C76.5302 131.042 63.5285 118.04 47.4902 118.04C31.4518 118.04 18.4502 131.042 18.4502 147.08C18.4502 163.118 31.4518 176.12 47.4902 176.12Z" fill="#0000FF"/>
<path d="M242.77 176.12C258.809 176.12 271.81 163.118 271.81 147.08C271.81 131.042 258.809 118.04 242.77 118.04C226.732 118.04 213.73 131.042 213.73 147.08C213.73 163.118 226.732 176.12 242.77 176.12Z" fill="#0000FF"/>
<path opacity="0.7" d="M145.13 176.12C161.168 176.12 174.17 163.118 174.17 147.08C174.17 131.042 161.168 118.04 145.13 118.04C129.091 118.04 116.09 131.042 116.09 147.08C116.09 163.118 129.091 176.12 145.13 176.12Z" fill="#00FFE6"/>
<path opacity="0.7" d="M29.04 176.12C45.0783 176.12 58.08 163.118 58.08 147.08C58.08 131.042 45.0783 118.04 29.04 118.04C13.0016 118.04 0 131.042 0 147.08C0 163.118 13.0016 176.12 29.04 176.12Z" fill="#00FFE6"/>
<path opacity="0.7" d="M261.221 176.12C277.259 176.12 290.261 163.118 290.261 147.08C290.261 131.042 277.259 118.04 261.221 118.04C245.182 118.04 232.181 131.042 232.181 147.08C232.181 163.118 245.182 176.12 261.221 176.12Z" fill="#00FFE6"/>
<path opacity="0.7" d="M145.13 58.08C161.168 58.08 174.17 45.0784 174.17 29.04C174.17 13.0017 161.168 0 145.13 0C129.091 0 116.09 13.0017 116.09 29.04C116.09 45.0784 129.091 58.08 145.13 58.08Z" fill="#00FFE6"/>
<path opacity="0.7" d="M29.04 58.08C45.0783 58.08 58.08 45.0784 58.08 29.04C58.08 13.0017 45.0783 0 29.04 0C13.0016 0 0 13.0017 0 29.04C0 45.0784 13.0016 58.08 29.04 58.08Z" fill="#00FFE6"/>
<path opacity="0.7" d="M261.221 58.08C277.259 58.08 290.261 45.0784 290.261 29.04C290.261 13.0017 277.259 0 261.221 0C245.182 0 232.181 13.0017 232.181 29.04C232.181 45.0784 245.182 58.08 261.221 58.08Z" fill="#00FFE6"/>
<path opacity="0.7" d="M145.13 294.17C161.168 294.17 174.17 281.168 174.17 265.13C174.17 249.092 161.168 236.09 145.13 236.09C129.091 236.09 116.09 249.092 116.09 265.13C116.09 281.168 129.091 294.17 145.13 294.17Z" fill="#00FFE6"/>
<path opacity="0.7" d="M29.04 294.17C45.0783 294.17 58.08 281.168 58.08 265.13C58.08 249.092 45.0783 236.09 29.04 236.09C13.0016 236.09 0 249.092 0 265.13C0 281.168 13.0016 294.17 29.04 294.17Z" fill="#00FFE6"/>
<path opacity="0.7" d="M261.221 294.17C277.259 294.17 290.261 281.168 290.261 265.13C290.261 249.092 277.259 236.09 261.221 236.09C245.182 236.09 232.181 249.092 232.181 265.13C232.181 281.168 245.182 294.17 261.221 294.17Z" fill="#00FFE6"/>
</svg>
