<svg width="295" height="295" viewBox="0 0 295 295" fill="none" xmlns="http://www.w3.org/2000/svg">
<path opacity="0.7" d="M231.14 260.76C247.178 260.76 260.18 247.758 260.18 231.72C260.18 215.682 247.178 202.68 231.14 202.68C215.102 202.68 202.1 215.682 202.1 231.72C202.1 247.758 215.102 260.76 231.14 260.76Z" fill="#00FFE6"/>
<path d="M147.05 273.49C163.088 273.49 176.09 260.488 176.09 244.45C176.09 228.412 163.088 215.41 147.05 215.41C131.012 215.41 118.01 228.412 118.01 244.45C118.01 260.488 131.012 273.49 147.05 273.49Z" fill="#0000FF"/>
<path opacity="0.7" d="M147.05 294.71C163.088 294.71 176.09 281.708 176.09 265.67C176.09 249.632 163.088 236.63 147.05 236.63C131.012 236.63 118.01 249.632 118.01 265.67C118.01 281.708 131.012 294.71 147.05 294.71Z" fill="#00FFE6"/>
<path d="M216.69 245.54C232.728 245.54 245.73 232.538 245.73 216.5C245.73 200.462 232.728 187.46 216.69 187.46C200.652 187.46 187.65 200.462 187.65 216.5C187.65 232.538 200.652 245.54 216.69 245.54Z" fill="#0000FF"/>
<path d="M78.45 245.54C94.4884 245.54 107.49 232.538 107.49 216.5C107.49 200.462 94.4884 187.46 78.45 187.46C62.4117 187.46 49.41 200.462 49.41 216.5C49.41 232.538 62.4117 245.54 78.45 245.54Z" fill="#0000FF"/>
<path opacity="0.7" d="M64 260.76C80.0383 260.76 93.04 247.758 93.04 231.72C93.04 215.682 80.0383 202.68 64 202.68C47.9616 202.68 34.96 215.682 34.96 231.72C34.96 247.758 47.9616 260.76 64 260.76Z" fill="#00FFE6"/>
<path d="M244.7 176.08C260.738 176.08 273.74 163.078 273.74 147.04C273.74 131.002 260.738 118 244.7 118C228.662 118 215.66 131.002 215.66 147.04C215.66 163.078 228.662 176.08 244.7 176.08Z" fill="#0000FF"/>
<path opacity="0.7" d="M265.92 176.08C281.958 176.08 294.96 163.078 294.96 147.04C294.96 131.002 281.958 118 265.92 118C249.882 118 236.88 131.002 236.88 147.04C236.88 163.078 249.882 176.08 265.92 176.08Z" fill="#00FFE6"/>
<path d="M50.26 177.08C66.2983 177.08 79.3 164.078 79.3 148.04C79.3 132.002 66.2983 119 50.26 119C34.2216 119 21.22 132.002 21.22 148.04C21.22 164.078 34.2216 177.08 50.26 177.08Z" fill="#0000FF"/>
<path opacity="0.7" d="M29.04 177.08C45.0784 177.08 58.08 164.078 58.08 148.04C58.08 132.002 45.0784 119 29.04 119C13.0017 119 0 132.002 0 148.04C0 164.078 13.0017 177.08 29.04 177.08Z" fill="#00FFE6"/>
<path d="M147.91 79.3C163.948 79.3 176.95 66.2983 176.95 50.2599C176.95 34.2216 163.948 21.22 147.91 21.22C131.872 21.22 118.87 34.2216 118.87 50.2599C118.87 66.2983 131.872 79.3 147.91 79.3Z" fill="#0000FF"/>
<path opacity="0.7" d="M147.91 58.08C163.948 58.08 176.95 45.0783 176.95 29.04C176.95 13.0016 163.948 0 147.91 0C131.872 0 118.87 13.0016 118.87 29.04C118.87 45.0783 131.872 58.08 147.91 58.08Z" fill="#00FFE6"/>
<path d="M78.27 107.25C94.3083 107.25 107.31 94.2483 107.31 78.21C107.31 62.1716 94.3083 49.17 78.27 49.17C62.2316 49.17 49.23 62.1716 49.23 78.21C49.23 94.2483 62.2316 107.25 78.27 107.25Z" fill="#0000FF"/>
<path opacity="0.7" d="M63.82 92.03C79.8584 92.03 92.86 79.0283 92.86 62.99C92.86 46.9516 79.8584 33.95 63.82 33.95C47.7817 33.95 34.78 46.9516 34.78 62.99C34.78 79.0283 47.7817 92.03 63.82 92.03Z" fill="#00FFE6"/>
<path d="M216.51 107.25C232.548 107.25 245.55 94.2483 245.55 78.21C245.55 62.1716 232.548 49.17 216.51 49.17C200.472 49.17 187.47 62.1716 187.47 78.21C187.47 94.2483 200.472 107.25 216.51 107.25Z" fill="#0000FF"/>
<path opacity="0.7" d="M230.96 92.03C246.998 92.03 260 79.0283 260 62.99C260 46.9516 246.998 33.95 230.96 33.95C214.922 33.95 201.92 46.9516 201.92 62.99C201.92 79.0283 214.922 92.03 230.96 92.03Z" fill="#00FFE6"/>
</svg>
