<svg width="454" height="37" viewBox="0 0 454 37" fill="none" xmlns="http://www.w3.org/2000/svg">
<path d="M0 0.409973H2.74002L23.21 31.47V0.409973H25.9V35.88H23.21L2.69 4.91998V35.88H0V0.409973Z" fill="white"/>
<path d="M35.29 35.16C34.83 34.69 34.61 34.03 34.61 33.18V0.399963H57.46V2.82996H37.4V16.51H55.94V18.94H37.4V33.38H57.46V35.86H37.19C36.38 35.87 35.75 35.64 35.29 35.16Z" fill="white"/>
<path d="M69.42 34.88C67.83 33.95 66.61 32.63 65.75 30.93C64.89 29.22 64.46 27.27 64.46 25.08V0.409973H67.25V25.14C67.25 27.71 67.95 29.78 69.35 31.37C70.75 32.96 72.6 33.75 74.9 33.75H80.42C82.72 33.75 84.57 32.96 85.97 31.39C87.37 29.82 88.0699 27.73 88.0699 25.13V0.399963H90.86V25.07C90.86 27.27 90.4299 29.22 89.5699 30.92C88.7099 32.63 87.48 33.94 85.9 34.87C84.31 35.8 82.49 36.26 80.43 36.26H74.91C72.83 36.28 71 35.81 69.42 34.88Z" fill="white"/>
<path d="M99.36 0.409973H116.08C118.54 0.409973 120.52 1.08996 122.01 2.45996C123.5 3.82996 124.24 5.63997 124.24 7.90997V11.86C124.24 13.65 123.66 15.23 122.52 16.6C121.37 17.97 119.83 18.91 117.91 19.41V19.46C118.92 19.97 119.84 20.79 120.65 21.94C121.46 23.09 122.09 24.44 122.53 25.99L125.37 35.87H122.53L119.69 25.99C119.15 24.2 118.3 22.78 117.13 21.73C115.96 20.68 114.64 20.16 113.15 20.16H102.15V35.87H99.36V0.409973ZM114.81 17.68C116.8 17.68 118.41 17.15 119.62 16.08C120.84 15.02 121.44 13.61 121.44 11.85V7.79999C121.44 6.30999 120.95 5.11998 119.97 4.22998C118.99 3.33998 117.67 2.88995 116.02 2.88995H102.15V17.68H114.81Z" fill="white"/>
<path d="M153.78 25.54H137.82L133.92 35.88H131.03L144.56 0.409973H145.88C146.69 0.409973 147.3 0.929981 147.7 1.97998L160.52 35.88H157.63L153.78 25.54ZM138.68 23.15H152.92L145.83 4.14996H145.78L138.68 23.15Z" fill="white"/>
<path d="M166.67 35.19C166.21 34.73 165.99 34.08 165.99 33.24V0.409973H168.78V33.34H188.03V35.87H168.57C167.76 35.87 167.13 35.64 166.67 35.19Z" fill="white"/>
<path d="M215.54 2.83997H204.29V0.409973H229.57V2.83997H218.32V35.88H215.53V2.83997H215.54Z" fill="white"/>
<path d="M235.76 0.409973H252.48C254.94 0.409973 256.92 1.08996 258.41 2.45996C259.9 3.82996 260.64 5.63997 260.64 7.90997V11.86C260.64 13.65 260.06 15.23 258.92 16.6C257.77 17.97 256.23 18.91 254.31 19.41V19.46C255.32 19.97 256.24 20.79 257.05 21.94C257.86 23.09 258.49 24.44 258.93 25.99L261.77 35.87H258.93L256.09 25.99C255.55 24.2 254.7 22.78 253.53 21.73C252.36 20.68 251.04 20.16 249.55 20.16H238.56V35.87H235.77V0.409973H235.76ZM251.21 17.68C253.2 17.68 254.81 17.15 256.02 16.08C257.24 15.02 257.84 13.61 257.84 11.85V7.79999C257.84 6.30999 257.35 5.11998 256.37 4.22998C255.39 3.33998 254.07 2.88995 252.42 2.88995H238.54V17.68H251.21Z" fill="white"/>
<path d="M290.17 25.54H274.21L270.31 35.88H267.42L280.95 0.409973H282.27C283.08 0.409973 283.69 0.929981 284.09 1.97998L296.91 35.88H294.02L290.17 25.54ZM275.07 23.15H289.31L282.22 4.14996H282.17L275.07 23.15Z" fill="white"/>
<path d="M302.69 0.409973H305.43L325.9 31.47V0.409973H328.59V35.88H325.9L305.38 4.91998V35.88H302.69V0.409973Z" fill="white"/>
<path d="M338.74 33.59C336.97 31.8 336.08 29.37 336.08 26.29H338.82C338.82 28.59 339.46 30.4 340.74 31.74C342.02 33.07 343.76 33.74 345.96 33.74H351.63C353.76 33.74 355.47 33.25 356.77 32.27C358.07 31.29 358.72 30.01 358.72 28.42V24.97C358.72 23.69 358.25 22.59 357.3 21.68C356.35 20.77 355.04 20.18 353.35 19.91L344.28 18.39C341.85 17.98 339.95 17.11 338.58 15.76C337.21 14.41 336.53 12.72 336.53 10.69V7.75C336.53 5.42 337.41 3.54 339.16 2.13C340.92 0.710005 343.23 0 346.1 0H351.83C354.57 0 356.77 0.82998 358.44 2.47998C360.11 4.13998 360.95 6.30996 360.95 9.01996H358.21C358.21 7.05996 357.63 5.47997 356.46 4.27997C355.29 3.07997 353.75 2.47998 351.82 2.47998H346.09C344.03 2.47998 342.38 2.95998 341.15 3.91998C339.92 4.87998 339.3 6.16 339.3 7.75V10.69C339.3 12.04 339.76 13.17 340.67 14.08C341.58 14.99 342.87 15.58 344.52 15.85L353.54 17.42C356.04 17.86 357.99 18.74 359.39 20.05C360.79 21.37 361.49 23.01 361.49 24.97V28.42C361.49 30.79 360.6 32.68 358.81 34.12C357.02 35.56 354.64 36.27 351.67 36.27H345.89C342.9 36.28 340.51 35.38 338.74 33.59Z" fill="white"/>
<path d="M368.71 0.409973H391.05V2.88995H371.49V16.93H389.17V19.41H371.49V35.88H368.7V0.409973H368.71Z" fill="white"/>
<path d="M398.22 35.16C397.76 34.69 397.54 34.03 397.54 33.18V0.399963H420.39V2.82996H400.33V16.51H418.87V18.94H400.33V33.38H420.39V35.86H400.12C399.31 35.87 398.67 35.64 398.22 35.16Z" fill="white"/>
<path d="M427.58 0.409973H444.3C446.76 0.409973 448.74 1.08996 450.23 2.45996C451.72 3.82996 452.46 5.63997 452.46 7.90997V11.86C452.46 13.65 451.88 15.23 450.74 16.6C449.59 17.97 448.05 18.91 446.13 19.41V19.46C447.14 19.97 448.06 20.79 448.87 21.94C449.68 23.09 450.31 24.44 450.75 25.99L453.59 35.87H450.75L447.91 25.99C447.37 24.2 446.52 22.78 445.35 21.73C444.18 20.68 442.86 20.16 441.37 20.16H430.38V35.87H427.59V0.409973H427.58ZM443.03 17.68C445.02 17.68 446.63 17.15 447.84 16.08C449.06 15.02 449.66 13.61 449.66 11.85V7.79999C449.66 6.30999 449.17 5.11998 448.19 4.22998C447.21 3.33998 445.89 2.88995 444.24 2.88995H430.36V17.68H443.03Z" fill="white"/>
</svg>
