<svg width="503" height="503" viewBox="0 0 503 503" fill="none" xmlns="http://www.w3.org/2000/svg">
<path d="M72.2704 75L251 2M72.2704 75L2 253M72.2704 75L250.957 253M251 2L429.856 74.6648M251 2V501.5M429.856 74.6648L501 253M429.856 74.6648L250.957 253M501 253L430.27 431M501 253H250.957M430.27 431L251 501.5M430.27 431L250.957 253M251 501.5L74.5203 430M74.5203 430L2 253M74.5203 430L250.957 253M2 253L250.957 253M135.514 138L251 88L368.761 135.568L416 253L367 368.193L251 415L136.889 367.432L90 253L135.514 138Z" stroke="white" stroke-opacity="0.05" stroke-width="3" stroke-linecap="round" stroke-linejoin="round"/>
</svg>
