<svg width="456" height="63" viewBox="0 0 456 63" fill="none" xmlns="http://www.w3.org/2000/svg">
<path d="M5.22 57.13C1.74 53.65 0 48.89 0 42.85H10.01C10.01 46.1 10.87 48.67 12.58 50.56C14.29 52.45 16.66 53.39 19.68 53.39H29.35C32.19 53.39 34.49 52.77 36.23 51.52C37.97 50.27 38.84 48.63 38.84 46.6V42.77C38.84 41.2 38.23 39.9 37.01 38.85C35.79 37.81 34.05 37.08 31.79 36.67L15.94 33.97C11 33.16 7.21999 31.53 4.57999 29.09C1.93999 26.65 0.619995 23.55 0.619995 19.77V14.98C0.619995 12.02 1.41999 9.40998 3.01999 7.13998C4.61999 4.87998 6.86999 3.12 9.76999 1.87C12.67 0.619995 16.04 0 19.87 0H29.71C33.31 0 36.49 0.740001 39.25 2.22C42.01 3.7 44.14 5.8 45.65 8.53C47.16 11.26 47.91 14.39 47.91 17.93H37.98C37.98 15.26 37.21 13.1 35.67 11.44C34.13 9.78997 32.14 8.95999 29.71 8.95999H19.87C17.14 8.95999 14.95 9.56 13.3 10.75C11.65 11.94 10.82 13.55 10.82 15.58V18.71C10.82 20.34 11.4 21.69 12.56 22.76C13.72 23.84 15.4 24.55 17.61 24.89L33.46 27.68C38.45 28.55 42.3 30.16 45 32.51C47.7 34.86 49.05 37.87 49.05 41.52V47.18C49.05 50.14 48.24 52.77 46.61 55.06C44.98 57.35 42.69 59.14 39.73 60.42C36.77 61.7 33.37 62.34 29.54 62.34H19.53C13.46 62.35 8.7 60.61 5.22 57.13Z" fill="white"/>
<path d="M66.87 59.52C63.62 57.63 61.09 54.96 59.29 51.51C57.49 48.06 56.59 44.06 56.59 39.54V22.82C56.59 18.29 57.5 14.3 59.33 10.85C61.16 7.39998 63.73 4.73 67.04 2.84C70.35 0.949996 74.1799 0.00997925 78.5399 0.00997925H87.77C91.89 0.00997925 95.55 0.899983 98.74 2.66998C101.93 4.43998 104.4 6.93997 106.14 10.16C107.88 13.38 108.75 17.11 108.75 21.35H98.74C98.74 17.64 97.72 14.64 95.69 12.38C93.66 10.12 91.02 8.97998 87.77 8.97998H78.5399C74.9999 8.97998 72.15 10.29 70.01 12.9C67.86 15.51 66.79 18.94 66.79 23.18V39.2C66.79 43.5 67.83 46.94 69.92 49.52C72.01 52.1 74.77 53.4 78.19 53.4H87.5899C90.9599 53.4 93.6899 52.12 95.7799 49.57C97.8699 47.02 98.92 43.71 98.92 39.64H108.93C108.93 44.17 108.05 48.15 106.27 51.57C104.5 55 102 57.65 98.7799 59.54C95.5599 61.43 91.8299 62.37 87.5899 62.37H78.19C73.89 62.35 70.12 61.41 66.87 59.52Z" fill="white"/>
<path d="M134.79 38.06L112.24 0.699982H123.3L139.85 28.74L156.39 0.699982H167.45L144.9 38.06V61.66H134.8V38.06H134.79Z" fill="white"/>
<path d="M181.38 59.52C178.13 57.63 175.6 54.96 173.8 51.51C172 48.06 171.1 44.06 171.1 39.54V22.82C171.1 18.29 172.01 14.3 173.84 10.85C175.67 7.39998 178.24 4.73 181.55 2.84C184.86 0.949996 188.69 0.00997925 193.04 0.00997925H202.27C206.39 0.00997925 210.05 0.899983 213.24 2.66998C216.43 4.43998 218.9 6.93997 220.64 10.16C222.38 13.38 223.25 17.11 223.25 21.35H213.24C213.24 17.64 212.22 14.64 210.19 12.38C208.16 10.12 205.52 8.97998 202.27 8.97998H193.04C189.5 8.97998 186.65 10.29 184.51 12.9C182.36 15.51 181.29 18.94 181.29 23.18V39.2C181.29 43.5 182.33 46.94 184.42 49.52C186.51 52.1 189.27 53.4 192.69 53.4H202.1C205.47 53.4 208.2 52.12 210.29 49.57C212.38 47.02 213.42 43.71 213.42 39.64H223.43C223.43 44.17 222.54 48.15 220.77 51.57C219 55 216.5 57.65 213.28 59.54C210.06 61.43 206.33 62.37 202.09 62.37H192.68C188.4 62.35 184.63 61.41 181.38 59.52Z" fill="white"/>
<path d="M237.46 59.65C236.12 58.32 235.46 56.55 235.46 54.34V0.699982H245.65V52.77H278.74V61.65H242.95C240.62 61.66 238.79 60.99 237.46 59.65Z" fill="white"/>
<path d="M295.98 59.52C292.61 57.63 290 54.96 288.14 51.51C286.28 48.06 285.35 44.06 285.35 39.54V22.82C285.35 18.29 286.28 14.3 288.14 10.85C290 7.39998 292.61 4.73 295.98 2.84C299.35 0.949996 303.24 0.00997925 307.65 0.00997925H316.87C321.28 0.00997925 325.19 0.949996 328.58 2.84C331.98 4.73 334.6 7.39998 336.46 10.85C338.32 14.3 339.25 18.3 339.25 22.82V39.54C339.25 44.07 338.32 48.06 336.46 51.51C334.6 54.96 331.98 57.63 328.58 59.52C325.18 61.41 321.28 62.35 316.87 62.35H307.64C303.23 62.35 299.34 61.41 295.98 59.52ZM316.87 53.38C320.47 53.38 323.4 52.07 325.66 49.46C327.92 46.85 329.06 43.42 329.06 39.18V23.16C329.06 18.92 327.94 15.5 325.71 12.88C323.47 10.27 320.53 8.95999 316.87 8.95999H307.73C304.07 8.95999 301.13 10.27 298.89 12.88C296.65 15.49 295.54 18.92 295.54 23.16V39.18C295.54 43.42 296.66 46.84 298.89 49.46C301.12 52.07 304.07 53.38 307.73 53.38H316.87Z" fill="white"/>
<path d="M349.36 0.699982H358.5L389.33 45.28V0.699982H399.26V61.66H390.03L359.29 17.25V61.66H349.36V0.699982Z" fill="white"/>
<path d="M413.14 59.61C411.78 58.25 411.09 56.46 411.09 54.25V0.699982H455.76V9.48999H421.28V26.04H453.15V34.92H421.28V52.86H455.76V61.65H418.58C416.32 61.66 414.5 60.98 413.14 59.61Z" fill="white"/>
</svg>
