<svg width="625" height="56" viewBox="0 0 625 56" fill="none" xmlns="http://www.w3.org/2000/svg">
<path d="M28.0055 15.095C24.911 15.095 22.4025 12.62 22.4025 9.56681C22.4025 6.51365 24.911 4.03857 28.0055 4.03857C31.0999 4.03857 33.6084 6.51365 33.6084 9.56681C33.6084 12.62 31.0999 15.095 28.0055 15.095Z" fill="#0000FF"/>
<path d="M46.8434 15.095C43.7489 15.095 41.2404 12.62 41.2404 9.56681C41.2404 6.51365 43.7489 4.03857 46.8434 4.03857C49.9378 4.03857 52.4463 6.51365 52.4463 9.56681C52.4463 12.62 49.9378 15.095 46.8434 15.095Z" fill="#0000FF"/>
<path d="M9.16366 15.095C6.06925 15.095 3.56073 12.62 3.56073 9.56681C3.56073 6.51365 6.06925 4.03857 9.16366 4.03857C12.2581 4.03857 14.7666 6.51365 14.7666 9.56681C14.7666 12.62 12.2581 15.095 9.16366 15.095Z" fill="#0000FF"/>
<path d="M28.0055 51.9608C24.911 51.9608 22.4025 49.4857 22.4025 46.4325C22.4025 43.3794 24.911 40.9043 28.0055 40.9043C31.0999 40.9043 33.6084 43.3794 33.6084 46.4325C33.6084 49.4857 31.0999 51.9608 28.0055 51.9608Z" fill="#0000FF"/>
<path d="M46.8434 51.9608C43.7489 51.9608 41.2404 49.4857 41.2404 46.4325C41.2404 43.3794 43.7489 40.9043 46.8434 40.9043C49.9378 40.9043 52.4463 43.3794 52.4463 46.4325C52.4463 49.4857 49.9378 51.9608 46.8434 51.9608Z" fill="#0000FF"/>
<path d="M9.16366 51.9608C6.06925 51.9608 3.56073 49.4857 3.56073 46.4325C3.56073 43.3794 6.06925 40.9043 9.16366 40.9043C12.2581 40.9043 14.7666 43.3794 14.7666 46.4325C14.7666 49.4857 12.2581 51.9608 9.16366 51.9608Z" fill="#0000FF"/>
<path d="M46.8434 33.5286C43.7489 33.5286 41.2404 31.0536 41.2404 28.0004C41.2404 24.9472 43.7489 22.4722 46.8434 22.4722C49.9378 22.4722 52.4463 24.9472 52.4463 28.0004C52.4463 31.0536 49.9378 33.5286 46.8434 33.5286Z" fill="#0000FF"/>
<path d="M9.16366 33.5286C6.06925 33.5286 3.56073 31.0536 3.56073 28.0004C3.56073 24.9472 6.06925 22.4722 9.16366 22.4722C12.2581 22.4722 14.7666 24.9472 14.7666 28.0004C14.7666 31.0536 12.2581 33.5286 9.16366 33.5286Z" fill="#0000FF"/>
<path opacity="0.7" d="M28.0055 33.5286C24.911 33.5286 22.4025 31.0536 22.4025 28.0004C22.4025 24.9472 24.911 22.4722 28.0055 22.4722C31.0999 22.4722 33.6084 24.9472 33.6084 28.0004C33.6084 31.0536 31.0999 33.5286 28.0055 33.5286Z" fill="#00FFE6"/>
<path opacity="0.7" d="M50.4019 33.5286C47.3075 33.5286 44.799 31.0536 44.799 28.0004C44.799 24.9472 47.3075 22.4722 50.4019 22.4722C53.4964 22.4722 56.0049 24.9472 56.0049 28.0004C56.0049 31.0536 53.4964 33.5286 50.4019 33.5286Z" fill="#00FFE6"/>
<path opacity="0.7" d="M5.6041 33.5286C2.50968 33.5286 0.00116348 31.0536 0.00116348 28.0004C0.00116348 24.9472 2.50968 22.4722 5.6041 22.4722C8.69852 22.4722 11.207 24.9472 11.207 28.0004C11.207 31.0536 8.69852 33.5286 5.6041 33.5286Z" fill="#00FFE6"/>
<path opacity="0.7" d="M28.0055 11.0565C24.911 11.0565 22.4025 8.5814 22.4025 5.52824C22.4025 2.47508 24.911 0 28.0055 0C31.0999 0 33.6084 2.47508 33.6084 5.52824C33.6084 8.5814 31.0999 11.0565 28.0055 11.0565Z" fill="#00FFE6"/>
<path opacity="0.7" d="M50.4019 11.0565C47.3075 11.0565 44.799 8.5814 44.799 5.52824C44.799 2.47508 47.3075 0 50.4019 0C53.4964 0 56.0049 2.47508 56.0049 5.52824C56.0049 8.5814 53.4964 11.0565 50.4019 11.0565Z" fill="#00FFE6"/>
<path opacity="0.7" d="M5.6041 11.0565C2.50968 11.0565 0.00116348 8.5814 0.00116348 5.52824C0.00116348 2.47508 2.50968 0 5.6041 0C8.69852 0 11.207 2.47508 11.207 5.52824C11.207 8.5814 8.69852 11.0565 5.6041 11.0565Z" fill="#00FFE6"/>
<path opacity="0.7" d="M28.0055 55.9989C24.911 55.9989 22.4025 53.5238 22.4025 50.4706C22.4025 47.4175 24.911 44.9424 28.0055 44.9424C31.0999 44.9424 33.6084 47.4175 33.6084 50.4706C33.6084 53.5238 31.0999 55.9989 28.0055 55.9989Z" fill="#00FFE6"/>
<path opacity="0.7" d="M50.4019 55.9989C47.3075 55.9989 44.799 53.5238 44.799 50.4706C44.799 47.4175 47.3075 44.9424 50.4019 44.9424C53.4964 44.9424 56.0049 47.4175 56.0049 50.4706C56.0049 53.5238 53.4964 55.9989 50.4019 55.9989Z" fill="#00FFE6"/>
<path opacity="0.7" d="M5.6041 55.9989C2.50968 55.9989 0.00116348 53.5238 0.00116348 50.4706C0.00116348 47.4175 2.50968 44.9424 5.6041 44.9424C8.69852 44.9424 11.207 47.4175 11.207 50.4706C11.207 53.5238 8.69852 55.9989 5.6041 55.9989Z" fill="#00FFE6"/>
<path d="M125.343 15.94H112.689V9.1H145.863V15.94H133.209V49H125.343V15.94ZM168.048 49.456C165.046 49.456 162.386 48.829 160.068 47.575C157.788 46.283 156.002 44.497 154.71 42.217C153.456 39.899 152.829 37.22 152.829 34.18V23.92C152.829 20.88 153.456 18.22 154.71 15.94C156.002 13.622 157.788 11.836 160.068 10.582C162.386 9.29 165.046 8.644 168.048 8.644H174.09C177.092 8.644 179.733 9.29 182.013 10.582C184.331 11.836 186.117 13.622 187.371 15.94C188.663 18.22 189.309 20.88 189.309 23.92V34.18C189.309 37.22 188.663 39.899 187.371 42.217C186.117 44.497 184.331 46.283 182.013 47.575C179.733 48.829 177.092 49.456 174.09 49.456H168.048ZM174.09 42.502C176.294 42.502 178.061 41.704 179.391 40.108C180.759 38.512 181.443 36.422 181.443 33.838V24.262C181.443 21.678 180.759 19.588 179.391 17.992C178.061 16.396 176.294 15.598 174.09 15.598H168.048C165.844 15.598 164.058 16.396 162.69 17.992C161.36 19.588 160.695 21.678 160.695 24.262V33.838C160.695 36.422 161.36 38.512 162.69 40.108C164.058 41.704 165.844 42.502 168.048 42.502H174.09ZM200.916 9.1H222.12C225.578 9.1 228.352 10.031 230.442 11.893C232.57 13.755 233.634 16.206 233.634 19.246V23.236C233.634 25.212 233.064 26.941 231.924 28.423C230.822 29.867 229.207 30.969 227.079 31.729V31.843C228.295 32.641 229.207 33.553 229.815 34.579C230.461 35.605 231.088 37.03 231.696 38.854L234.888 49H226.737L223.716 39.538C223.222 37.904 222.538 36.688 221.664 35.89C220.79 35.092 219.707 34.693 218.415 34.693H208.782V49H200.916V9.1ZM220.638 27.91C222.234 27.91 223.488 27.492 224.4 26.656C225.312 25.782 225.768 24.661 225.768 23.293V19.588C225.768 18.486 225.426 17.612 224.742 16.966C224.058 16.282 223.146 15.94 222.006 15.94H208.782V27.91H220.638ZM257.217 49.456C253.037 49.456 249.769 48.297 247.413 45.979C245.057 43.623 243.879 40.355 243.879 36.175H251.631C251.631 38.151 252.125 39.709 253.113 40.849C254.139 41.951 255.545 42.502 257.331 42.502H263.658C265.33 42.502 266.679 42.16 267.705 41.476C268.769 40.754 269.301 39.804 269.301 38.626V36.688C269.301 34.826 267.933 33.667 265.197 33.211L254.709 31.444C251.289 30.874 248.686 29.791 246.9 28.195C245.152 26.561 244.278 24.49 244.278 21.982V18.79C244.278 16.776 244.81 15.009 245.874 13.489C246.976 11.931 248.515 10.734 250.491 9.898C252.505 9.062 254.823 8.644 257.445 8.644H263.886C266.356 8.644 268.541 9.157 270.441 10.183C272.341 11.209 273.804 12.653 274.83 14.515C275.894 16.339 276.426 18.467 276.426 20.899H268.674C268.674 19.303 268.237 18.03 267.363 17.08C266.489 16.092 265.33 15.598 263.886 15.598H257.445C255.849 15.598 254.557 15.94 253.569 16.624C252.619 17.308 252.144 18.22 252.144 19.36V20.899C252.144 22.799 253.455 23.977 256.077 24.433L266.508 26.257C269.966 26.865 272.607 27.948 274.431 29.506C276.255 31.026 277.167 33.002 277.167 35.434V39.196C277.167 41.21 276.597 42.996 275.457 44.554C274.355 46.112 272.797 47.328 270.783 48.202C268.769 49.038 266.432 49.456 263.772 49.456H257.217ZM288.924 9.1H296.79V49H288.924V9.1ZM324.219 49.456C321.217 49.456 318.557 48.829 316.239 47.575C313.959 46.283 312.173 44.497 310.881 42.217C309.627 39.899 309 37.22 309 34.18V23.92C309 20.88 309.627 18.22 310.881 15.94C312.173 13.622 313.959 11.836 316.239 10.582C318.557 9.29 321.217 8.644 324.219 8.644H330.261C333.263 8.644 335.904 9.29 338.184 10.582C340.502 11.836 342.288 13.622 343.542 15.94C344.834 18.22 345.48 20.88 345.48 23.92V34.18C345.48 37.22 344.834 39.899 343.542 42.217C342.288 44.497 340.502 46.283 338.184 47.575C335.904 48.829 333.263 49.456 330.261 49.456H324.219ZM330.261 42.502C332.465 42.502 334.232 41.704 335.562 40.108C336.93 38.512 337.614 36.422 337.614 33.838V24.262C337.614 21.678 336.93 19.588 335.562 17.992C334.232 16.396 332.465 15.598 330.261 15.598H324.219C322.015 15.598 320.229 16.396 318.861 17.992C317.531 19.588 316.866 21.678 316.866 24.262V33.838C316.866 36.422 317.531 38.512 318.861 40.108C320.229 41.704 322.015 42.502 324.219 42.502H330.261ZM357.088 9.1H364.099L383.251 36.232V9.1H390.946V49H383.935L364.783 21.868V49H357.088V9.1ZM449.192 39.709H434.258L430.724 49H422.516L438.134 9.1H441.668C444.138 9.1 445.81 10.24 446.684 12.52L460.877 49H452.669L449.192 39.709ZM436.367 33.097H447.083L441.782 18.733H441.725L436.367 33.097ZM482.724 49.456C479.912 49.456 477.442 48.867 475.314 47.689C473.186 46.473 471.533 44.782 470.355 42.616C469.177 40.45 468.588 37.942 468.588 35.092V9.1H476.454V34.864C476.454 37.144 477.024 38.987 478.164 40.393C479.342 41.799 480.862 42.502 482.724 42.502H488.766C490.666 42.502 492.205 41.799 493.383 40.393C494.561 38.987 495.15 37.144 495.15 34.864V9.1H503.016V35.092C503.016 37.942 502.427 40.45 501.249 42.616C500.071 44.782 498.399 46.473 496.233 47.689C494.067 48.867 491.578 49.456 488.766 49.456H482.724ZM521.07 49C519.436 49 518.106 48.506 517.08 47.518C516.054 46.53 515.541 45.238 515.541 43.642V9.1H534.579C537.619 9.1 540.279 9.67 542.559 10.81C544.877 11.95 546.663 13.565 547.917 15.655C549.209 17.745 549.855 20.158 549.855 22.894V34.066C549.855 38.968 548.582 42.692 546.036 45.238C543.49 47.746 539.747 49 534.807 49H521.07ZM534.579 42.046C537.011 42.046 538.854 41.343 540.108 39.937C541.362 38.531 541.989 36.46 541.989 33.724V23.236C541.989 21.07 541.286 19.341 539.88 18.049C538.474 16.719 536.631 16.054 534.351 16.054H523.407V42.046H534.579ZM561.833 9.1H569.699V49H561.833V9.1ZM597.129 49.456C594.127 49.456 591.467 48.829 589.149 47.575C586.869 46.283 585.083 44.497 583.791 42.217C582.537 39.899 581.91 37.22 581.91 34.18V23.92C581.91 20.88 582.537 18.22 583.791 15.94C585.083 13.622 586.869 11.836 589.149 10.582C591.467 9.29 594.127 8.644 597.129 8.644H603.171C606.173 8.644 608.814 9.29 611.094 10.582C613.412 11.836 615.198 13.622 616.452 15.94C617.744 18.22 618.39 20.88 618.39 23.92V34.18C618.39 37.22 617.744 39.899 616.452 42.217C615.198 44.497 613.412 46.283 611.094 47.575C608.814 48.829 606.173 49.456 603.171 49.456H597.129ZM603.171 42.502C605.375 42.502 607.142 41.704 608.472 40.108C609.84 38.512 610.524 36.422 610.524 33.838V24.262C610.524 21.678 609.84 19.588 608.472 17.992C607.142 16.396 605.375 15.598 603.171 15.598H597.129C594.925 15.598 593.139 16.396 591.771 17.992C590.441 19.588 589.776 21.678 589.776 24.262V33.838C589.776 36.422 590.441 38.512 591.771 40.108C593.139 41.704 594.925 42.502 597.129 42.502H603.171Z" fill="white" fill-opacity="0.8"/>
</svg>
