<svg width="500" height="650" viewBox="0 0 500 650" fill="none" xmlns="http://www.w3.org/2000/svg">
<g clip-path="url(#clip0_1547_3815)">
<path d="M500 0H0V650H500V0Z" fill="#131214"/>
<path d="M250.003 68.2199C254.093 68.2199 257.407 64.9051 257.407 60.816C257.407 56.7269 254.093 53.4121 250.003 53.4121C245.914 53.4121 242.6 56.7269 242.6 60.816C242.6 64.9051 245.914 68.2199 250.003 68.2199Z" fill="#0000FF"/>
<path d="M225.111 68.2199C229.2 68.2199 232.515 64.9051 232.515 60.816C232.515 56.7269 229.2 53.4121 225.111 53.4121C221.022 53.4121 217.707 56.7269 217.707 60.816C217.707 64.9051 221.022 68.2199 225.111 68.2199Z" fill="#0000FF"/>
<path d="M274.898 68.2199C278.987 68.2199 282.302 64.9051 282.302 60.816C282.302 56.7269 278.987 53.4121 274.898 53.4121C270.809 53.4121 267.494 56.7269 267.494 60.816C267.494 64.9051 270.809 68.2199 274.898 68.2199Z" fill="#0000FF"/>
<path d="M250.003 117.592C254.093 117.592 257.407 114.277 257.407 110.188C257.407 106.099 254.093 102.784 250.003 102.784C245.914 102.784 242.6 106.099 242.6 110.188C242.6 114.277 245.914 117.592 250.003 117.592Z" fill="#0000FF"/>
<path d="M225.111 117.592C229.2 117.592 232.515 114.277 232.515 110.188C232.515 106.099 229.2 102.784 225.111 102.784C221.022 102.784 217.707 106.099 217.707 110.188C217.707 114.277 221.022 117.592 225.111 117.592Z" fill="#0000FF"/>
<path d="M274.898 117.592C278.987 117.592 282.302 114.277 282.302 110.188C282.302 106.099 278.987 102.784 274.898 102.784C270.809 102.784 267.494 106.099 267.494 110.188C267.494 114.277 270.809 117.592 274.898 117.592Z" fill="#0000FF"/>
<path d="M225.111 92.9045C229.2 92.9045 232.515 89.5896 232.515 85.5006C232.515 81.4115 229.2 78.0967 225.111 78.0967C221.022 78.0967 217.707 81.4115 217.707 85.5006C217.707 89.5896 221.022 92.9045 225.111 92.9045Z" fill="#0000FF"/>
<path d="M274.898 92.9045C278.987 92.9045 282.302 89.5896 282.302 85.5006C282.302 81.4115 278.987 78.0967 274.898 78.0967C270.809 78.0967 267.494 81.4115 267.494 85.5006C267.494 89.5896 270.809 92.9045 274.898 92.9045Z" fill="#0000FF"/>
<path opacity="0.7" d="M250.003 92.9045C254.093 92.9045 257.407 89.5896 257.407 85.5006C257.407 81.4115 254.093 78.0967 250.003 78.0967C245.914 78.0967 242.6 81.4115 242.6 85.5006C242.6 89.5896 245.914 92.9045 250.003 92.9045Z" fill="#00FFE6"/>
<path opacity="0.7" d="M220.406 92.9045C224.495 92.9045 227.81 89.5896 227.81 85.5006C227.81 81.4115 224.495 78.0967 220.406 78.0967C216.317 78.0967 213.002 81.4115 213.002 85.5006C213.002 89.5896 216.317 92.9045 220.406 92.9045Z" fill="#00FFE6"/>
<path opacity="0.7" d="M279.601 92.9045C283.69 92.9045 287.005 89.5896 287.005 85.5006C287.005 81.4115 283.69 78.0967 279.601 78.0967C275.512 78.0967 272.197 81.4115 272.197 85.5006C272.197 89.5896 275.512 92.9045 279.601 92.9045Z" fill="#00FFE6"/>
<path opacity="0.7" d="M250.003 62.8097C254.093 62.8097 257.407 59.4949 257.407 55.4058C257.407 51.3168 254.093 48.002 250.003 48.002C245.914 48.002 242.6 51.3168 242.6 55.4058C242.6 59.4949 245.914 62.8097 250.003 62.8097Z" fill="#00FFE6"/>
<path opacity="0.7" d="M220.406 62.8097C224.495 62.8097 227.81 59.4949 227.81 55.4058C227.81 51.3168 224.495 48.002 220.406 48.002C216.317 48.002 213.002 51.3168 213.002 55.4058C213.002 59.4949 216.317 62.8097 220.406 62.8097Z" fill="#00FFE6"/>
<path opacity="0.7" d="M279.601 62.8097C283.69 62.8097 287.005 59.4949 287.005 55.4058C287.005 51.3168 283.69 48.002 279.601 48.002C275.512 48.002 272.197 51.3168 272.197 55.4058C272.197 59.4949 275.512 62.8097 279.601 62.8097Z" fill="#00FFE6"/>
<path opacity="0.7" d="M250.003 123.001C254.093 123.001 257.407 119.686 257.407 115.597C257.407 111.508 254.093 108.193 250.003 108.193C245.914 108.193 242.6 111.508 242.6 115.597C242.6 119.686 245.914 123.001 250.003 123.001Z" fill="#00FFE6"/>
<path opacity="0.7" d="M220.406 123.001C224.495 123.001 227.81 119.686 227.81 115.597C227.81 111.508 224.495 108.193 220.406 108.193C216.317 108.193 213.002 111.508 213.002 115.597C213.002 119.686 216.317 123.001 220.406 123.001Z" fill="#00FFE6"/>
<path opacity="0.7" d="M279.601 123.001C283.69 123.001 287.005 119.686 287.005 115.597C287.005 111.508 283.69 108.193 279.601 108.193C275.512 108.193 272.197 111.508 272.197 115.597C272.197 119.686 275.512 123.001 279.601 123.001Z" fill="#00FFE6"/>
<path d="M157.178 195.317C155.727 193.866 155.002 191.882 155.002 189.364H159.175C159.175 190.719 159.533 191.79 160.246 192.578C160.959 193.366 161.947 193.758 163.206 193.758H167.237C168.421 193.758 169.38 193.499 170.105 192.978C170.83 192.457 171.193 191.773 171.193 190.927V189.33C171.193 188.676 170.939 188.134 170.43 187.696C169.922 187.263 169.196 186.958 168.254 186.787L161.647 185.662C159.592 185.324 158.012 184.645 156.911 183.628C155.811 182.61 155.26 181.318 155.26 179.742V177.746C155.26 176.512 155.594 175.424 156.261 174.477C156.928 173.535 157.862 172.802 159.075 172.281C160.284 171.759 161.688 171.501 163.285 171.501H167.387C168.888 171.501 170.213 171.809 171.364 172.426C172.515 173.043 173.402 173.919 174.032 175.057C174.661 176.195 174.974 177.5 174.974 178.975H170.835C170.835 177.862 170.514 176.962 169.872 176.27C169.23 175.578 168.4 175.236 167.387 175.236H163.285C162.147 175.236 161.234 175.486 160.546 175.982C159.854 176.478 159.512 177.15 159.512 177.996V179.301C159.512 179.98 159.754 180.543 160.238 180.989C160.721 181.439 161.422 181.735 162.343 181.877L168.95 183.04C171.03 183.403 172.635 184.074 173.761 185.053C174.887 186.033 175.449 187.288 175.449 188.809V191.169C175.449 192.403 175.112 193.499 174.432 194.454C173.753 195.408 172.798 196.154 171.564 196.688C170.33 197.222 168.913 197.488 167.316 197.488H163.143C160.613 197.493 158.629 196.767 157.178 195.317Z" fill="#D1D3D5"/>
<path d="M182.879 196.313C181.524 195.525 180.47 194.412 179.719 192.974C178.969 191.535 178.594 189.868 178.594 187.984V181.014C178.594 179.125 178.977 177.462 179.736 176.024C180.499 174.586 181.57 173.473 182.95 172.685C184.33 171.897 185.926 171.505 187.74 171.505H191.588C193.305 171.505 194.831 171.876 196.161 172.614C197.49 173.352 198.52 174.394 199.245 175.736C199.971 177.078 200.333 178.633 200.333 180.401H196.161C196.161 178.854 195.735 177.604 194.889 176.662C194.043 175.719 192.942 175.244 191.588 175.244H187.74C186.264 175.244 185.076 175.79 184.184 176.878C183.288 177.966 182.842 179.396 182.842 181.164V187.842C182.842 189.634 183.275 191.068 184.146 192.144C185.018 193.219 186.168 193.761 187.594 193.761H191.512C192.917 193.761 194.055 193.228 194.927 192.165C195.798 191.102 196.231 189.722 196.231 188.025H200.404C200.404 189.914 200.037 191.573 199.295 192.999C198.558 194.428 197.515 195.533 196.173 196.321C194.831 197.109 193.276 197.501 191.508 197.501H187.59C185.806 197.492 184.234 197.101 182.879 196.313Z" fill="#D1D3D5"/>
<path d="M211.191 187.367L201.791 171.793H206.402L213.301 183.482L220.196 171.793H224.806L215.406 187.367V197.205H211.196V187.367H211.191Z" fill="#D1D3D5"/>
<path d="M230.614 196.313C229.259 195.525 228.204 194.412 227.454 192.974C226.703 191.535 226.328 189.868 226.328 187.984V181.014C226.328 179.125 226.707 177.462 227.47 176.024C228.233 174.586 229.305 173.473 230.684 172.685C232.064 171.897 233.661 171.505 235.474 171.505H239.322C241.039 171.505 242.565 171.876 243.895 172.614C245.225 173.352 246.254 174.394 246.98 175.736C247.705 177.078 248.068 178.633 248.068 180.401H243.895C243.895 178.854 243.47 177.604 242.623 176.662C241.777 175.719 240.677 175.244 239.322 175.244H235.474C233.998 175.244 232.81 175.79 231.918 176.878C231.022 177.966 230.576 179.396 230.576 181.164V187.842C230.576 189.634 231.01 191.068 231.881 192.144C232.752 193.219 233.903 193.761 235.328 193.761H239.251C240.656 193.761 241.794 193.228 242.665 192.165C243.536 191.102 243.97 189.722 243.97 188.025H248.143C248.143 189.914 247.772 191.573 247.034 192.999C246.296 194.428 245.254 195.533 243.912 196.321C242.569 197.109 241.014 197.501 239.247 197.501H235.324C233.54 197.492 231.968 197.101 230.614 196.313Z" fill="#D1D3D5"/>
<path d="M253.992 196.367C253.433 195.813 253.158 195.075 253.158 194.154V171.793H257.406V193.499H271.2V197.201H256.281C255.309 197.205 254.546 196.926 253.992 196.367Z" fill="#D1D3D5"/>
<path d="M278.384 196.313C276.98 195.525 275.892 194.412 275.116 192.974C274.341 191.535 273.953 189.868 273.953 187.984V181.014C273.953 179.125 274.341 177.462 275.116 176.024C275.892 174.586 276.98 173.473 278.384 172.685C279.789 171.897 281.411 171.505 283.249 171.505H287.097C288.935 171.505 290.565 171.897 291.978 172.685C293.396 173.473 294.488 174.586 295.263 176.024C296.039 177.462 296.426 179.129 296.426 181.014V187.984C296.426 189.872 296.039 191.535 295.263 192.974C294.488 194.412 293.396 195.525 291.978 196.313C290.561 197.101 288.935 197.492 287.097 197.492H283.249C281.407 197.492 279.785 197.101 278.384 196.313ZM287.097 193.753C288.598 193.753 289.819 193.207 290.761 192.119C291.703 191.031 292.179 189.601 292.179 187.834V181.155C292.179 179.388 291.712 177.962 290.782 176.87C289.848 175.782 288.623 175.236 287.097 175.236H283.287C281.761 175.236 280.535 175.782 279.602 176.87C278.668 177.958 278.205 179.388 278.205 181.155V187.834C278.205 189.601 278.672 191.027 279.602 192.119C280.531 193.207 281.761 193.753 283.287 193.753H287.097Z" fill="#D1D3D5"/>
<path d="M300.639 171.793H304.449L317.301 190.377V171.793H321.44V197.205H317.593L304.778 178.692V197.205H300.639V171.793Z" fill="#D1D3D5"/>
<path d="M327.228 196.351C326.661 195.784 326.373 195.037 326.373 194.116V171.793H344.995V175.457H330.621V182.356H343.907V186.058H330.621V193.537H344.995V197.201H329.495C328.553 197.205 327.799 196.922 327.228 196.351Z" fill="#D1D3D5"/>
<path d="M156 216.171H157.133L165.594 229.01V216.171H166.706V230.833H165.594L157.112 218.035V230.833H156V216.171Z" fill="#D1D3D5"/>
<path d="M170.588 230.535C170.398 230.34 170.307 230.068 170.307 229.716V216.166H179.752V217.17H171.46V222.825H179.124V223.83H171.46V229.799H179.752V230.824H171.373C171.038 230.828 170.778 230.733 170.588 230.535Z" fill="#D1D3D5"/>
<path d="M184.697 230.419C184.04 230.035 183.535 229.489 183.18 228.786C182.824 228.079 182.646 227.273 182.646 226.368V216.17H183.8V226.393C183.8 227.455 184.089 228.311 184.668 228.968C185.247 229.625 186.011 229.952 186.962 229.952H189.244C190.195 229.952 190.959 229.625 191.538 228.976C192.117 228.327 192.406 227.463 192.406 226.389V216.166H193.559V226.364C193.559 227.273 193.382 228.079 193.026 228.782C192.671 229.489 192.162 230.03 191.509 230.415C190.852 230.799 190.1 230.989 189.248 230.989H186.966C186.106 230.998 185.35 230.803 184.697 230.419Z" fill="#D1D3D5"/>
<path d="M197.072 216.171H203.984C205.001 216.171 205.819 216.452 206.435 217.018C207.051 217.585 207.357 218.333 207.357 219.271V220.904C207.357 221.644 207.117 222.297 206.646 222.863C206.171 223.43 205.534 223.818 204.74 224.025V224.046C205.158 224.256 205.538 224.595 205.873 225.071C206.208 225.546 206.468 226.104 206.65 226.745L207.824 230.829H206.65L205.476 226.745C205.253 226.005 204.901 225.418 204.418 224.984C203.934 224.55 203.389 224.335 202.773 224.335H198.226V230.829H197.072V216.171ZM203.459 223.31C204.281 223.31 204.947 223.091 205.447 222.648C205.951 222.21 206.199 221.627 206.199 220.9V219.226C206.199 218.61 205.997 218.118 205.592 217.75C205.187 217.382 204.641 217.196 203.959 217.196H198.226V223.31H203.459Z" fill="#D1D3D5"/>
<path d="M219.568 226.559H212.971L211.359 230.833H210.164L215.757 216.171H216.303C216.637 216.171 216.89 216.386 217.055 216.82L222.354 230.833H221.16L219.568 226.559ZM213.326 225.571H219.213L216.282 217.717H216.261L213.326 225.571Z" fill="#D1D3D5"/>
<path d="M224.898 230.548C224.708 230.358 224.617 230.089 224.617 229.742V216.171H225.77V229.783H233.728V230.829H225.684C225.349 230.829 225.088 230.734 224.898 230.548Z" fill="#D1D3D5"/>
<path d="M245.098 217.175H240.447V216.171H250.897V217.175H246.247V230.833H245.094V217.175H245.098Z" fill="#D1D3D5"/>
<path d="M253.455 216.171H260.367C261.384 216.171 262.202 216.452 262.818 217.018C263.434 217.585 263.74 218.333 263.74 219.271V220.904C263.74 221.644 263.5 222.297 263.029 222.863C262.553 223.43 261.917 223.818 261.123 224.025V224.046C261.541 224.256 261.921 224.595 262.256 225.071C262.591 225.546 262.851 226.104 263.033 226.745L264.207 230.829H263.033L261.859 226.745C261.636 226.005 261.284 225.418 260.801 224.984C260.317 224.55 259.771 224.335 259.155 224.335H254.613V230.829H253.459V216.171H253.455ZM259.842 223.31C260.664 223.31 261.33 223.091 261.83 222.648C262.334 222.21 262.582 221.627 262.582 220.9V219.226C262.582 218.61 262.38 218.118 261.975 217.75C261.57 217.382 261.024 217.196 260.342 217.196H254.604V223.31H259.842Z" fill="#D1D3D5"/>
<path d="M275.947 226.559H269.35L267.738 230.833H266.543L272.136 216.171H272.681C273.016 216.171 273.268 216.386 273.434 216.82L278.733 230.833H277.539L275.947 226.559ZM269.705 225.571H275.592L272.661 217.717H272.64L269.705 225.571Z" fill="#D1D3D5"/>
<path d="M281.123 216.171H282.256L290.717 229.01V216.171H291.829V230.833H290.717L282.235 218.035V230.833H281.123V216.171Z" fill="#D1D3D5"/>
<path d="M296.023 229.886C295.292 229.146 294.924 228.142 294.924 226.868H296.056C296.056 227.819 296.321 228.567 296.85 229.121C297.379 229.671 298.099 229.948 299.008 229.948H301.352C302.232 229.948 302.939 229.745 303.476 229.34C304.014 228.935 304.283 228.406 304.283 227.749V226.323C304.283 225.794 304.088 225.339 303.696 224.963C303.303 224.587 302.761 224.343 302.063 224.231L298.313 223.603C297.309 223.433 296.524 223.074 295.957 222.516C295.391 221.958 295.11 221.259 295.11 220.42V219.205C295.11 218.241 295.474 217.464 296.197 216.881C296.925 216.294 297.879 216.001 299.066 216.001H301.434C302.567 216.001 303.476 216.344 304.167 217.026C304.857 217.712 305.204 218.609 305.204 219.73H304.072C304.072 218.919 303.832 218.266 303.348 217.77C302.865 217.274 302.228 217.026 301.43 217.026H299.062C298.21 217.026 297.528 217.225 297.02 217.621C296.511 218.018 296.255 218.547 296.255 219.205V220.42C296.255 220.978 296.445 221.445 296.821 221.821C297.197 222.197 297.731 222.441 298.413 222.553L302.141 223.202C303.175 223.384 303.981 223.748 304.559 224.289C305.138 224.835 305.428 225.513 305.428 226.323V227.749C305.428 228.729 305.06 229.51 304.32 230.105C303.58 230.7 302.596 230.994 301.368 230.994H298.979C297.743 230.998 296.755 230.626 296.023 229.886Z" fill="#D1D3D5"/>
<path d="M308.414 216.171H317.649V217.196H309.563V223H316.872V224.025H309.563V230.833H308.41V216.171H308.414Z" fill="#D1D3D5"/>
<path d="M320.611 230.535C320.421 230.34 320.33 230.068 320.33 229.716V216.166H329.776V217.17H321.483V222.825H329.147V223.83H321.483V229.799H329.776V230.824H321.397C321.062 230.828 320.797 230.733 320.611 230.535Z" fill="#D1D3D5"/>
<path d="M332.748 216.171H339.66C340.676 216.171 341.495 216.452 342.111 217.018C342.727 217.585 343.033 218.333 343.033 219.271V220.904C343.033 221.644 342.793 222.297 342.322 222.863C341.846 223.43 341.21 223.818 340.416 224.025V224.046C340.834 224.256 341.214 224.595 341.549 225.071C341.884 225.546 342.144 226.104 342.326 226.745L343.5 230.829H342.326L341.152 226.745C340.929 226.005 340.577 225.418 340.094 224.984C339.61 224.55 339.064 224.335 338.448 224.335H333.905V230.829H332.752V216.171H332.748ZM339.135 223.31C339.957 223.31 340.623 223.091 341.123 222.648C341.627 222.21 341.875 221.627 341.875 220.9V219.226C341.875 218.61 341.673 218.118 341.268 217.75C340.862 217.382 340.317 217.196 339.635 217.196H333.897V223.31H339.135Z" fill="#D1D3D5"/>
<path d="M187.318 604.3H183.988V602.5H192.718V604.3H189.388V613H187.318V604.3ZM198.556 613.12C197.766 613.12 197.066 612.955 196.456 612.625C195.856 612.285 195.386 611.815 195.046 611.215C194.716 610.605 194.551 609.9 194.551 609.1V606.4C194.551 605.6 194.716 604.9 195.046 604.3C195.386 603.69 195.856 603.22 196.456 602.89C197.066 602.55 197.766 602.38 198.556 602.38H200.146C200.936 602.38 201.631 602.55 202.231 602.89C202.841 603.22 203.311 603.69 203.641 604.3C203.981 604.9 204.151 605.6 204.151 606.4V609.1C204.151 609.9 203.981 610.605 203.641 611.215C203.311 611.815 202.841 612.285 202.231 612.625C201.631 612.955 200.936 613.12 200.146 613.12H198.556ZM200.146 611.29C200.726 611.29 201.191 611.08 201.541 610.66C201.901 610.24 202.081 609.69 202.081 609.01V606.49C202.081 605.81 201.901 605.26 201.541 604.84C201.191 604.42 200.726 604.21 200.146 604.21H198.556C197.976 604.21 197.506 604.42 197.146 604.84C196.796 605.26 196.621 605.81 196.621 606.49V609.01C196.621 609.69 196.796 610.24 197.146 610.66C197.506 611.08 197.976 611.29 198.556 611.29H200.146ZM207.206 602.5H212.786C213.696 602.5 214.426 602.745 214.976 603.235C215.536 603.725 215.816 604.37 215.816 605.17V606.22C215.816 606.74 215.666 607.195 215.366 607.585C215.076 607.965 214.651 608.255 214.091 608.455V608.485C214.411 608.695 214.651 608.935 214.811 609.205C214.981 609.475 215.146 609.85 215.306 610.33L216.146 613H214.001L213.206 610.51C213.076 610.08 212.896 609.76 212.666 609.55C212.436 609.34 212.151 609.235 211.811 609.235H209.276V613H207.206V602.5ZM212.396 607.45C212.816 607.45 213.146 607.34 213.386 607.12C213.626 606.89 213.746 606.595 213.746 606.235V605.26C213.746 604.97 213.656 604.74 213.476 604.57C213.296 604.39 213.056 604.3 212.756 604.3H209.276V607.45H212.396ZM222.022 613.12C220.922 613.12 220.062 612.815 219.442 612.205C218.822 611.585 218.512 610.725 218.512 609.625H220.552C220.552 610.145 220.682 610.555 220.942 610.855C221.212 611.145 221.582 611.29 222.052 611.29H223.717C224.157 611.29 224.512 611.2 224.782 611.02C225.062 610.83 225.202 610.58 225.202 610.27V609.76C225.202 609.27 224.842 608.965 224.122 608.845L221.362 608.38C220.462 608.23 219.777 607.945 219.307 607.525C218.847 607.095 218.617 606.55 218.617 605.89V605.05C218.617 604.52 218.757 604.055 219.037 603.655C219.327 603.245 219.732 602.93 220.252 602.71C220.782 602.49 221.392 602.38 222.082 602.38H223.777C224.427 602.38 225.002 602.515 225.502 602.785C226.002 603.055 226.387 603.435 226.657 603.925C226.937 604.405 227.077 604.965 227.077 605.605H225.037C225.037 605.185 224.922 604.85 224.692 604.6C224.462 604.34 224.157 604.21 223.777 604.21H222.082C221.662 604.21 221.322 604.3 221.062 604.48C220.812 604.66 220.687 604.9 220.687 605.2V605.605C220.687 606.105 221.032 606.415 221.722 606.535L224.467 607.015C225.377 607.175 226.072 607.46 226.552 607.87C227.032 608.27 227.272 608.79 227.272 609.43V610.42C227.272 610.95 227.122 611.42 226.822 611.83C226.532 612.24 226.122 612.56 225.592 612.79C225.062 613.01 224.447 613.12 223.747 613.12H222.022ZM230.366 602.5H232.436V613H230.366V602.5ZM239.654 613.12C238.864 613.12 238.164 612.955 237.554 612.625C236.954 612.285 236.484 611.815 236.144 611.215C235.814 610.605 235.649 609.9 235.649 609.1V606.4C235.649 605.6 235.814 604.9 236.144 604.3C236.484 603.69 236.954 603.22 237.554 602.89C238.164 602.55 238.864 602.38 239.654 602.38H241.244C242.034 602.38 242.729 602.55 243.329 602.89C243.939 603.22 244.409 603.69 244.739 604.3C245.079 604.9 245.249 605.6 245.249 606.4V609.1C245.249 609.9 245.079 610.605 244.739 611.215C244.409 611.815 243.939 612.285 243.329 612.625C242.729 612.955 242.034 613.12 241.244 613.12H239.654ZM241.244 611.29C241.824 611.29 242.289 611.08 242.639 610.66C242.999 610.24 243.179 609.69 243.179 609.01V606.49C243.179 605.81 242.999 605.26 242.639 604.84C242.289 604.42 241.824 604.21 241.244 604.21H239.654C239.074 604.21 238.604 604.42 238.244 604.84C237.894 605.26 237.719 605.81 237.719 606.49V609.01C237.719 609.69 237.894 610.24 238.244 610.66C238.604 611.08 239.074 611.29 239.654 611.29H241.244ZM248.304 602.5H250.149L255.189 609.64V602.5H257.214V613H255.369L250.329 605.86V613H248.304V602.5ZM272.541 610.555H268.611L267.681 613H265.521L269.631 602.5H270.561C271.211 602.5 271.651 602.8 271.881 603.4L275.616 613H273.456L272.541 610.555ZM269.166 608.815H271.986L270.591 605.035H270.576L269.166 608.815ZM281.366 613.12C280.626 613.12 279.976 612.965 279.416 612.655C278.856 612.335 278.421 611.89 278.111 611.32C277.801 610.75 277.646 610.09 277.646 609.34V602.5H279.716V609.28C279.716 609.88 279.866 610.365 280.166 610.735C280.476 611.105 280.876 611.29 281.366 611.29H282.956C283.456 611.29 283.861 611.105 284.171 610.735C284.481 610.365 284.636 609.88 284.636 609.28V602.5H286.706V609.34C286.706 610.09 286.551 610.75 286.241 611.32C285.931 611.89 285.491 612.335 284.921 612.655C284.351 612.965 283.696 613.12 282.956 613.12H281.366ZM291.457 613C291.027 613 290.677 612.87 290.407 612.61C290.137 612.35 290.002 612.01 290.002 611.59V602.5H295.012C295.812 602.5 296.512 602.65 297.112 602.95C297.722 603.25 298.192 603.675 298.522 604.225C298.862 604.775 299.032 605.41 299.032 606.13V609.07C299.032 610.36 298.697 611.34 298.027 612.01C297.357 612.67 296.372 613 295.072 613H291.457ZM295.012 611.17C295.652 611.17 296.137 610.985 296.467 610.615C296.797 610.245 296.962 609.7 296.962 608.98V606.22C296.962 605.65 296.777 605.195 296.407 604.855C296.037 604.505 295.552 604.33 294.952 604.33H292.072V611.17H295.012ZM302.184 602.5H304.254V613H302.184V602.5ZM311.472 613.12C310.682 613.12 309.982 612.955 309.372 612.625C308.772 612.285 308.302 611.815 307.962 611.215C307.632 610.605 307.467 609.9 307.467 609.1V606.4C307.467 605.6 307.632 604.9 307.962 604.3C308.302 603.69 308.772 603.22 309.372 602.89C309.982 602.55 310.682 602.38 311.472 602.38H313.062C313.852 602.38 314.547 602.55 315.147 602.89C315.757 603.22 316.227 603.69 316.557 604.3C316.897 604.9 317.067 605.6 317.067 606.4V609.1C317.067 609.9 316.897 610.605 316.557 611.215C316.227 611.815 315.757 612.285 315.147 612.625C314.547 612.955 313.852 613.12 313.062 613.12H311.472ZM313.062 611.29C313.642 611.29 314.107 611.08 314.457 610.66C314.817 610.24 314.997 609.69 314.997 609.01V606.49C314.997 605.81 314.817 605.26 314.457 604.84C314.107 604.42 313.642 604.21 313.062 604.21H311.472C310.892 604.21 310.422 604.42 310.062 604.84C309.712 605.26 309.537 605.81 309.537 606.49V609.01C309.537 609.69 309.712 610.24 310.062 610.66C310.422 611.08 310.892 611.29 311.472 611.29H313.062Z" fill="white" fill-opacity="0.5"/>
</g>
<defs>
<clipPath id="clip0_1547_3815">
<rect width="500" height="650" fill="white"/>
</clipPath>
</defs>
</svg>
