<svg width="149" height="150" viewBox="0 0 149 150" fill="none" xmlns="http://www.w3.org/2000/svg">
<path d="M74.0031 40.4359C82.1812 40.4359 88.8109 33.8062 88.8109 25.6281C88.8109 17.45 82.1812 10.8203 74.0031 10.8203C65.825 10.8203 59.1953 17.45 59.1953 25.6281C59.1953 33.8062 65.825 40.4359 74.0031 40.4359Z" fill="#0000FF"/>
<path d="M24.216 40.4359C32.3941 40.4359 39.0237 33.8062 39.0237 25.6281C39.0237 17.45 32.3941 10.8203 24.216 10.8203C16.0379 10.8203 9.4082 17.45 9.4082 25.6281C9.4082 33.8062 16.0379 40.4359 24.216 40.4359Z" fill="#0000FF"/>
<path d="M123.79 40.4359C131.968 40.4359 138.598 33.8062 138.598 25.6281C138.598 17.45 131.968 10.8203 123.79 10.8203C115.612 10.8203 108.982 17.45 108.982 25.6281C108.982 33.8062 115.612 40.4359 123.79 40.4359Z" fill="#0000FF"/>
<path d="M74.0031 139.18C82.1812 139.18 88.8109 132.55 88.8109 124.372C88.8109 116.194 82.1812 109.564 74.0031 109.564C65.825 109.564 59.1953 116.194 59.1953 124.372C59.1953 132.55 65.825 139.18 74.0031 139.18Z" fill="#0000FF"/>
<path d="M24.216 139.18C32.3941 139.18 39.0237 132.55 39.0237 124.372C39.0237 116.194 32.3941 109.564 24.216 109.564C16.0379 109.564 9.4082 116.194 9.4082 124.372C9.4082 132.55 16.0379 139.18 24.216 139.18Z" fill="#0000FF"/>
<path d="M123.79 139.18C131.968 139.18 138.598 132.55 138.598 124.372C138.598 116.194 131.968 109.564 123.79 109.564C115.612 109.564 108.982 116.194 108.982 124.372C108.982 132.55 115.612 139.18 123.79 139.18Z" fill="#0000FF"/>
<path d="M24.216 89.805C32.3941 89.805 39.0237 83.1753 39.0237 74.9972C39.0237 66.8191 32.3941 60.1895 24.216 60.1895C16.0379 60.1895 9.4082 66.8191 9.4082 74.9972C9.4082 83.1753 16.0379 89.805 24.216 89.805Z" fill="#0000FF"/>
<path d="M123.79 89.805C131.968 89.805 138.598 83.1753 138.598 74.9972C138.598 66.8191 131.968 60.1895 123.79 60.1895C115.612 60.1895 108.982 66.8191 108.982 74.9972C108.982 83.1753 115.612 89.805 123.79 89.805Z" fill="#0000FF"/>
<path opacity="0.7" d="M74.0031 89.805C82.1812 89.805 88.8109 83.1753 88.8109 74.9972C88.8109 66.8191 82.1812 60.1895 74.0031 60.1895C65.825 60.1895 59.1953 66.8191 59.1953 74.9972C59.1953 83.1753 65.825 89.805 74.0031 89.805Z" fill="#00FFE6"/>
<path opacity="0.7" d="M14.8078 89.805C22.9859 89.805 29.6155 83.1753 29.6155 74.9972C29.6155 66.8191 22.9859 60.1895 14.8078 60.1895C6.62966 60.1895 0 66.8191 0 74.9972C0 83.1753 6.62966 89.805 14.8078 89.805Z" fill="#00FFE6"/>
<path opacity="0.7" d="M133.198 89.805C141.376 89.805 148.006 83.1753 148.006 74.9972C148.006 66.8191 141.376 60.1895 133.198 60.1895C125.02 60.1895 118.391 66.8191 118.391 74.9972C118.391 83.1753 125.02 89.805 133.198 89.805Z" fill="#00FFE6"/>
<path opacity="0.7" d="M74.0031 29.6156C82.1812 29.6156 88.8109 22.9859 88.8109 14.8078C88.8109 6.62967 82.1812 0 74.0031 0C65.825 0 59.1953 6.62967 59.1953 14.8078C59.1953 22.9859 65.825 29.6156 74.0031 29.6156Z" fill="#00FFE6"/>
<path opacity="0.7" d="M14.8078 29.6156C22.9859 29.6156 29.6155 22.9859 29.6155 14.8078C29.6155 6.62967 22.9859 0 14.8078 0C6.62966 0 0 6.62967 0 14.8078C0 22.9859 6.62966 29.6156 14.8078 29.6156Z" fill="#00FFE6"/>
<path opacity="0.7" d="M133.198 29.6156C141.376 29.6156 148.006 22.9859 148.006 14.8078C148.006 6.62967 141.376 0 133.198 0C125.02 0 118.391 6.62967 118.391 14.8078C118.391 22.9859 125.02 29.6156 133.198 29.6156Z" fill="#00FFE6"/>
<path opacity="0.7" d="M74.0031 149.999C82.1812 149.999 88.8109 143.37 88.8109 135.192C88.8109 127.013 82.1812 120.384 74.0031 120.384C65.825 120.384 59.1953 127.013 59.1953 135.192C59.1953 143.37 65.825 149.999 74.0031 149.999Z" fill="#00FFE6"/>
<path opacity="0.7" d="M14.8078 149.999C22.9859 149.999 29.6155 143.37 29.6155 135.192C29.6155 127.013 22.9859 120.384 14.8078 120.384C6.62966 120.384 0 127.013 0 135.192C0 143.37 6.62966 149.999 14.8078 149.999Z" fill="#00FFE6"/>
<path opacity="0.7" d="M133.198 149.999C141.376 149.999 148.006 143.37 148.006 135.192C148.006 127.013 141.376 120.384 133.198 120.384C125.02 120.384 118.391 127.013 118.391 135.192C118.391 143.37 125.02 149.999 133.198 149.999Z" fill="#00FFE6"/>
</svg>
